<svg width="159" height="20" viewBox="0 0 159 20" fill="none" xmlns="http://www.w3.org/2000/svg">
<path d="M18.7059 0L7.79412 8.23529L0 14.1176L6.23529 16.4706V18.8235L14.0294 16.4706L18.7059 14.1176C22.3431 14.902 30.2412 16.4706 32.7353 16.4706C35.2294 16.4706 38.9706 14.1176 40.5294 12.9412H59.2353H74.8235C77.4216 12.1569 83.2412 10.5882 85.7353 10.5882C88.8529 10.5882 99.7647 12.9412 106 14.1176C112.235 15.2941 115.353 11.7647 120.029 10.5882C124.706 9.41177 124.706 12.9412 127.824 15.2941C130.941 17.6471 137.176 12.9412 138.735 12.9412C139.982 12.9412 147.569 15.2941 151.206 16.4706L159 20L157.441 15.2941L151.206 8.23529L149.647 2.35294L126.265 7.05882L115.353 1.17647L93.5294 7.05882L68.5882 2.35294L70.1471 7.05882L37.4118 0L29.6176 8.23529L18.7059 0Z" fill="#82FF9D"/>
</svg>
