<svg width="60" height="65" viewBox="0 0 60 65" fill="none" xmlns="http://www.w3.org/2000/svg">
<path d="M0.899994 30H48.5V60C48.5 62.7614 46.2614 65 43.5 65H5.9C3.13857 65 0.899994 62.7614 0.899994 60V30Z" fill="white"/>
<path d="M47.1 53.1C50.6 53.3333 57.6 52.68 57.6 48.2C57.6 43.72 57.6 38.8667 57.6 37H47.1" stroke="white" stroke-width="4"/>
<path d="M6.49999 24C8.99999 21 13.1 14.6 9.49999 13C4.99999 11 3.49999 3 6.49999 1.5" stroke="white" stroke-width="3"/>
<path d="M19.5608 24.5C22.0608 21.5 26.1608 15.1 22.5608 13.5C18.0608 11.5 16.5608 3.5 19.5608 2" stroke="white" stroke-width="3"/>
<path d="M33.5608 24.5C36.0608 21.5 40.1608 15.1 36.5608 13.5C32.0608 11.5 30.5608 3.5 33.5608 2" stroke="white" stroke-width="3"/>
</svg>
