<svg width="61" height="66" viewBox="0 0 61 66" fill="none" xmlns="http://www.w3.org/2000/svg">
<circle cx="19.4047" cy="22.2568" r="5.66667" transform="rotate(21.9883 19.4047 22.2568)" stroke="white" stroke-width="3"/>
<circle cx="32.6954" cy="27.6235" r="5.66667" transform="rotate(21.9883 32.6954 27.6235)" stroke="white" stroke-width="3"/>
<circle cx="45.9862" cy="32.9902" r="5.66667" transform="rotate(21.9883 45.9862 32.9902)" stroke="white" stroke-width="3"/>
<circle cx="34.706" cy="41.7852" r="5.66667" transform="rotate(21.9883 34.706 41.7852)" stroke="white" stroke-width="3"/>
<circle cx="23.4258" cy="50.5802" r="5.66667" transform="rotate(21.9883 23.4258 50.5802)" stroke="white" stroke-width="3"/>
<circle cx="21.4152" cy="36.4185" r="5.66667" transform="rotate(21.9883 21.4152 36.4185)" stroke="white" stroke-width="3"/>
<path d="M35.3788 20.9781C29.466 16.3221 19.0268 6.59745 24.572 4.94759C31.5035 2.88526 35.6352 6.49808 35.3788 20.9781Z" fill="white"/>
<path d="M35.3788 20.9781C29.466 16.3221 19.0268 6.59745 24.572 4.94759C31.5035 2.88526 35.6352 6.49808 35.3788 20.9781Z" stroke="white"/>
<path d="M35.1348 21.5823C42.6228 22.3373 56.8876 22.5879 54.0427 17.5502C50.4867 11.2531 45.0048 10.9841 35.1348 21.5823Z" fill="white"/>
<path d="M35.1348 21.5823C42.6228 22.3373 56.8876 22.5879 54.0427 17.5502C50.4867 11.2531 45.0048 10.9841 35.1348 21.5823Z" stroke="white"/>
</svg>
